<svg width="16" height="16" viewBox="0 0 16 16" fill="none" xmlns="http://www.w3.org/2000/svg">
<path d="M9.28793 9.88873C10.8394 9.27405 12.3766 8.36115 13.5337 7.13138C11.7506 8.71033 6.55975 9.2829 5.81962 9.57895C5.07948 9.875 1.6479 10.7303 0.504053 15.5C0.673886 14.8081 0.876515 14.2365 1.11656 13.7586C3.16802 9.19979 6.92551 10.6739 9.02783 9.98896C9.11453 9.95648 9.20125 9.92307 9.28793 9.88873Z" fill="url(#paint0_linear_128_287)"/>
<path d="M9.02783 9.98896C6.92551 10.6739 3.16802 9.19979 1.11656 13.7586C2.26485 11.4727 4.26938 11.332 7.6363 10.4342C8.0929 10.3125 8.56008 10.1642 9.02783 9.98896Z" fill="url(#paint1_linear_128_287)"/>
<path d="M7.73725 7.30921C3.5992 8.29605 1.07598 10.4013 0.504053 15.5C1.6479 10.7303 5.07948 9.875 5.81962 9.57895C6.55975 9.2829 11.7506 8.71033 13.5337 7.13138C15.0725 5.49594 15.9392 3.3001 15.2732 0.5C15.0377 5.76316 11.8753 6.32237 7.73725 7.30921Z" fill="url(#paint2_linear_128_287)"/>
<path d="M6.86252 6.81579C3.6073 7.62723 0.369503 10.4342 0.504053 15.5C1.07598 10.4013 3.5992 8.29605 7.73725 7.30921C11.8753 6.32237 15.0377 5.76316 15.2732 0.5C14.8695 4.77632 10.1177 6.00435 6.86252 6.81579Z" fill="url(#paint3_linear_128_287)"/>
<path d="M9.28793 9.88873C10.8394 9.27405 12.3766 8.36115 13.5337 7.13138C11.7506 8.71033 6.55975 9.2829 5.81962 9.57895C5.07948 9.875 1.6479 10.7303 0.504053 15.5C0.673886 14.8081 0.876515 14.2365 1.11656 13.7586C3.16802 9.19979 6.92551 10.6739 9.02783 9.98896C9.11453 9.95648 9.20125 9.92307 9.28793 9.88873Z" fill="url(#paint4_linear_128_287)"/>
<path d="M9.02783 9.98896C6.92551 10.6739 3.16802 9.19979 1.11656 13.7586C2.26485 11.4727 4.26938 11.332 7.6363 10.4342C8.0929 10.3125 8.56008 10.1642 9.02783 9.98896Z" fill="url(#paint5_linear_128_287)"/>
<path d="M7.73725 7.30921C3.5992 8.29605 1.07598 10.4013 0.504053 15.5C1.6479 10.7303 5.07948 9.875 5.81962 9.57895C6.55975 9.2829 11.7506 8.71033 13.5337 7.13138C15.0725 5.49594 15.9392 3.3001 15.2732 0.5C15.0377 5.76316 11.8753 6.32237 7.73725 7.30921Z" fill="url(#paint6_linear_128_287)"/>
<path d="M6.86252 6.81579C3.6073 7.62723 0.369503 10.4342 0.504053 15.5C1.07598 10.4013 3.5992 8.29605 7.73725 7.30921C11.8753 6.32237 15.0377 5.76316 15.2732 0.5C14.8695 4.77632 10.1177 6.00435 6.86252 6.81579Z" fill="url(#paint7_linear_128_287)"/>
<path d="M9.28793 9.88873C10.8394 9.27405 12.3766 8.36115 13.5337 7.13138C11.7506 8.71033 6.55975 9.2829 5.81962 9.57895C5.07948 9.875 1.6479 10.7303 0.504053 15.5C0.673886 14.8081 0.876515 14.2365 1.11656 13.7586C3.16802 9.19979 6.92551 10.6739 9.02783 9.98896C9.11453 9.95648 9.20125 9.92307 9.28793 9.88873Z" fill="url(#paint8_linear_128_287)"/>
<path d="M9.02783 9.98896C6.92551 10.6739 3.16802 9.19979 1.11656 13.7586C2.26485 11.4727 4.26938 11.332 7.6363 10.4342C8.0929 10.3125 8.56008 10.1642 9.02783 9.98896Z" fill="url(#paint9_linear_128_287)"/>
<path d="M7.73725 7.30921C3.5992 8.29605 1.07598 10.4013 0.504053 15.5C1.6479 10.7303 5.07948 9.875 5.81962 9.57895C6.55975 9.2829 11.7506 8.71033 13.5337 7.13138C15.0725 5.49594 15.9392 3.3001 15.2732 0.5C15.0377 5.76316 11.8753 6.32237 7.73725 7.30921Z" fill="url(#paint10_linear_128_287)"/>
<path d="M6.86252 6.81579C3.6073 7.62723 0.369503 10.4342 0.504053 15.5C1.07598 10.4013 3.5992 8.29605 7.73725 7.30921C11.8753 6.32237 15.0377 5.76316 15.2732 0.5C14.8695 4.77632 10.1177 6.00435 6.86252 6.81579Z" fill="url(#paint11_linear_128_287)"/>
<path d="M6.1224 7.78473C8.15551 7.04734 9.28775 6.49518 10.6642 5.66447M0.504053 15.5C0.369503 10.4342 3.6073 7.62723 6.86252 6.81579C10.1177 6.00435 14.8695 4.77632 15.2732 0.5M0.504053 15.5C1.07598 10.4013 3.5992 8.29605 7.73725 7.30921C11.8753 6.32237 15.0377 5.76316 15.2732 0.5M0.504053 15.5C1.6479 10.7303 5.07948 9.875 5.81962 9.57895C6.55975 9.2829 11.7506 8.71033 13.5337 7.13138M0.504053 15.5C0.673886 14.8081 0.876515 14.2365 1.11656 13.7586M0.504053 15.5C0.684418 14.8387 0.890095 14.2619 1.11656 13.7586M15.2732 0.5C15.9392 3.3001 15.0725 5.49594 13.5337 7.13138M15.2732 0.5C16.468 5.52327 12.7302 8.60185 9.02783 9.98896M9.28793 9.88873C10.8394 9.27405 12.3766 8.36115 13.5337 7.13138M9.28793 9.88873C9.20125 9.92307 9.11453 9.95648 9.02783 9.98896M9.28793 9.88873C9.20442 9.92651 9.11763 9.95971 9.02783 9.98896M1.11656 13.7586C3.16802 9.19979 6.92551 10.6739 9.02783 9.98896M1.11656 13.7586C2.26485 11.4727 4.26938 11.332 7.6363 10.4342C8.0929 10.3125 8.56008 10.1642 9.02783 9.98896" stroke="white" stroke-width="0.25"/>
<defs>
<linearGradient id="paint0_linear_128_287" x1="14.163" y1="7.17763" x2="1.48865" y2="12.2053" gradientUnits="userSpaceOnUse">
<stop stop-color="white" stop-opacity="0"/>
<stop offset="1" stop-color="white"/>
</linearGradient>
<linearGradient id="paint1_linear_128_287" x1="9.3521" y1="9.44737" x2="0.843554" y2="14.6822" gradientUnits="userSpaceOnUse">
<stop stop-color="white"/>
<stop offset="1" stop-color="white" stop-opacity="0"/>
</linearGradient>
<linearGradient id="paint2_linear_128_287" x1="15.5087" y1="0.105263" x2="0.857205" y2="15.829" gradientUnits="userSpaceOnUse">
<stop stop-color="white"/>
<stop offset="1" stop-color="white" stop-opacity="0"/>
</linearGradient>
<linearGradient id="paint3_linear_128_287" x1="15.5087" y1="0.105263" x2="0.857205" y2="15.829" gradientUnits="userSpaceOnUse">
<stop stop-color="white" stop-opacity="0"/>
<stop offset="1" stop-color="white"/>
</linearGradient>
<linearGradient id="paint4_linear_128_287" x1="14.163" y1="7.17763" x2="1.48865" y2="12.2053" gradientUnits="userSpaceOnUse">
<stop stop-color="white" stop-opacity="0"/>
<stop offset="1" stop-color="white"/>
</linearGradient>
<linearGradient id="paint5_linear_128_287" x1="9.3521" y1="9.44737" x2="0.843554" y2="14.6822" gradientUnits="userSpaceOnUse">
<stop stop-color="white"/>
<stop offset="1" stop-color="white" stop-opacity="0"/>
</linearGradient>
<linearGradient id="paint6_linear_128_287" x1="15.5087" y1="0.105263" x2="0.857205" y2="15.829" gradientUnits="userSpaceOnUse">
<stop stop-color="white"/>
<stop offset="1" stop-color="white" stop-opacity="0"/>
</linearGradient>
<linearGradient id="paint7_linear_128_287" x1="15.5087" y1="0.105263" x2="0.857205" y2="15.829" gradientUnits="userSpaceOnUse">
<stop stop-color="white" stop-opacity="0"/>
<stop offset="1" stop-color="white"/>
</linearGradient>
<linearGradient id="paint8_linear_128_287" x1="14.163" y1="7.17763" x2="1.48865" y2="12.2053" gradientUnits="userSpaceOnUse">
<stop stop-color="white" stop-opacity="0"/>
<stop offset="1" stop-color="white"/>
</linearGradient>
<linearGradient id="paint9_linear_128_287" x1="9.3521" y1="9.44737" x2="0.843554" y2="14.6822" gradientUnits="userSpaceOnUse">
<stop stop-color="white"/>
<stop offset="1" stop-color="white" stop-opacity="0"/>
</linearGradient>
<linearGradient id="paint10_linear_128_287" x1="15.5087" y1="0.105263" x2="0.857205" y2="15.829" gradientUnits="userSpaceOnUse">
<stop stop-color="white"/>
<stop offset="1" stop-color="white" stop-opacity="0"/>
</linearGradient>
<linearGradient id="paint11_linear_128_287" x1="15.5087" y1="0.105263" x2="0.857205" y2="15.829" gradientUnits="userSpaceOnUse">
<stop stop-color="white" stop-opacity="0"/>
<stop offset="1" stop-color="white"/>
</linearGradient>
</defs>
</svg>
