<svg width="500" height="500" viewBox="0 0 500 500" fill="none" xmlns="http://www.w3.org/2000/svg">
<mask id="mask0_103_3" style="mask-type:luminance" maskUnits="userSpaceOnUse" x="18" y="18" width="464" height="464">
<path d="M34 258V242H26C23.8783 242 21.8434 242.843 20.3431 244.343C18.8429 245.843 18 247.878 18 250C18 252.122 18.8429 254.157 20.3431 255.657C21.8434 257.157 23.8783 258 26 258" fill="white"/>
<path d="M18 306H34V290H26C23.8783 290 21.8434 290.843 20.3431 292.343C18.8428 293.843 18 295.878 18 298" fill="white"/>
<path d="M34 322V306H18L18 314C18 316.122 18.8429 318.157 20.3431 319.657C21.8434 321.157 23.8783 322 26 322" fill="white"/>
<path d="M34 354V338H26C23.8783 338 21.8434 338.843 20.3431 340.343C18.8429 341.843 18 343.878 18 346C18 348.122 18.8429 350.157 20.3431 351.657C21.8434 353.157 23.8783 354 26 354" fill="white"/>
<path d="M42 162C46.4183 162 50 158.418 50 154C50 149.582 46.4183 146 42 146C37.5817 146 34 149.582 34 154C34 158.418 37.5817 162 42 162Z" fill="white"/>
<path d="M50 194V178H42C39.8783 178 37.8434 178.843 36.3431 180.343C34.8429 181.843 34 183.878 34 186C34 188.122 34.8429 190.157 36.3431 191.657C37.8434 193.157 39.8783 194 42 194" fill="white"/>
<path d="M42 226C46.4183 226 50 222.418 50 218C50 213.582 46.4183 210 42 210C37.5817 210 34 213.582 34 218C34 222.418 37.5817 226 42 226Z" fill="white"/>
<path d="M50 242H34V258H50V242Z" fill="white"/>
<path d="M34 290H50V274H42C39.8783 274 37.8434 274.843 36.3431 276.343C34.8428 277.843 34 279.878 34 282" fill="white"/>
<path d="M50 290H34V306H50V290Z" fill="white"/>
<path d="M50 306H34V322H50V306Z" fill="white"/>
<path d="M50 322H34V338H50V322Z" fill="white"/>
<path d="M50 338H34V354H42C44.1217 354 46.1566 353.157 47.6569 351.657C49.1572 350.157 50 348.122 50 346" fill="white"/>
<path d="M66 178H50V194H66V178Z" fill="white"/>
<path d="M50 242H66V226H58C55.8783 226 53.8434 226.843 52.3431 228.343C50.8428 229.843 50 231.878 50 234" fill="white"/>
<path d="M66 242H50V258H66V242Z" fill="white"/>
<path d="M66 258H50V274H66V258Z" fill="white"/>
<path d="M66 274H50V290H58C60.1217 290 62.1566 289.157 63.6569 287.657C65.1572 286.157 66 284.122 66 282" fill="white"/>
<path d="M66 162H82V146H74C71.8783 146 69.8434 146.843 68.3431 148.343C66.8428 149.843 66 151.878 66 154" fill="white"/>
<path d="M82 162H66V178H82V162Z" fill="white"/>
<path d="M82 178H66V194H82V178Z" fill="white"/>
<path d="M82 194H66V210H82V194Z" fill="white"/>
<path d="M82 210H66V226H82V210Z" fill="white"/>
<path d="M82 226H66V242H82V226Z" fill="white"/>
<path d="M82 242H66V258H82V242Z" fill="white"/>
<path d="M74 306C78.4183 306 82 302.418 82 298C82 293.582 78.4183 290 74 290C69.5817 290 66 293.582 66 298C66 302.418 69.5817 306 74 306Z" fill="white"/>
<path d="M82 146V162H90C92.1217 162 94.1566 161.157 95.6569 159.657C97.1571 158.157 98 156.122 98 154C98 151.878 97.1571 149.843 95.6569 148.343C94.1566 146.843 92.1217 146 90 146" fill="white"/>
<path d="M82 210V226H98V218C98 215.878 97.1571 213.843 95.6569 212.343C94.1566 210.843 92.1217 210 90 210" fill="white"/>
<path d="M98 226H82V242H98V226Z" fill="white"/>
<path d="M98 242H82V258H98V242Z" fill="white"/>
<path d="M98 258H82V266C82 268.122 82.8428 270.157 84.3431 271.657C85.8434 273.157 87.8783 274 90 274C92.1217 274 94.1566 273.157 95.6569 271.657C97.1572 270.157 98 268.122 98 266" fill="white"/>
<path d="M82 322H98V314C98 311.878 97.1572 309.843 95.6569 308.343C94.1566 306.843 92.1217 306 90 306C87.8783 306 85.8434 306.843 84.3431 308.343C82.8428 309.843 82 311.878 82 314" fill="white"/>
<path d="M98 322H82V330C82 332.122 82.8428 334.157 84.3431 335.657C85.8434 337.157 87.8783 338 90 338C92.1217 338 94.1566 337.157 95.6569 335.657C97.1572 334.157 98 332.122 98 330" fill="white"/>
<path d="M106 178C110.418 178 114 174.418 114 170C114 165.582 110.418 162 106 162C101.582 162 98 165.582 98 170C98 174.418 101.582 178 106 178Z" fill="white"/>
<path d="M106 210C110.418 210 114 206.418 114 202C114 197.582 110.418 194 106 194C101.582 194 98 197.582 98 202C98 206.418 101.582 210 106 210Z" fill="white"/>
<path d="M114 354V338H106C103.878 338 101.843 338.843 100.343 340.343C98.8429 341.843 98 343.878 98 346C98 348.122 98.8429 350.157 100.343 351.657C101.843 353.157 103.878 354 106 354" fill="white"/>
<path d="M130 162V146H122C119.878 146 117.843 146.843 116.343 148.343C114.843 149.843 114 151.878 114 154C114 156.122 114.843 158.157 116.343 159.657C117.843 161.157 119.878 162 122 162" fill="white"/>
<path d="M130 194V178H122C119.878 178 117.843 178.843 116.343 180.343C114.843 181.843 114 183.878 114 186C114 188.122 114.843 190.157 116.343 191.657C117.843 193.157 119.878 194 122 194" fill="white"/>
<path d="M130 226V210H122C119.878 210 117.843 210.843 116.343 212.343C114.843 213.843 114 215.878 114 218C114 220.122 114.843 222.157 116.343 223.657C117.843 225.157 119.878 226 122 226" fill="white"/>
<path d="M122 258C126.418 258 130 254.418 130 250C130 245.582 126.418 242 122 242C117.582 242 114 245.582 114 250C114 254.418 117.582 258 122 258Z" fill="white"/>
<path d="M122 290C126.418 290 130 286.418 130 282C130 277.582 126.418 274 122 274C117.582 274 114 277.582 114 282C114 286.418 117.582 290 122 290Z" fill="white"/>
<path d="M130 322V306H122C119.878 306 117.843 306.843 116.343 308.343C114.843 309.843 114 311.878 114 314C114 316.122 114.843 318.157 116.343 319.657C117.843 321.157 119.878 322 122 322" fill="white"/>
<path d="M130 338H114V354H130V338Z" fill="white"/>
<path d="M146 146H130V162H146V146Z" fill="white"/>
<path d="M146 178H130V194H146V178Z" fill="white"/>
<path d="M146 210H130V226H146V210Z" fill="white"/>
<path d="M130 306V322H146V314C146 311.878 145.157 309.843 143.657 308.343C142.157 306.843 140.122 306 138 306" fill="white"/>
<path d="M146 322H130V338H146V322Z" fill="white"/>
<path d="M146 338H130V354H138C140.122 354 142.157 353.157 143.657 351.657C145.157 350.157 146 348.122 146 346" fill="white"/>
<path d="M154 50C158.418 50 162 46.4183 162 42C162 37.5817 158.418 34 154 34C149.582 34 146 37.5817 146 42C146 46.4183 149.582 50 154 50Z" fill="white"/>
<path d="M146 82H162V66H154C151.878 66 149.843 66.8428 148.343 68.3431C146.843 69.8434 146 71.8783 146 74" fill="white"/>
<path d="M162 82H146V98H162V82Z" fill="white"/>
<path d="M162 98H146V114H162V98Z" fill="white"/>
<path d="M162 114H146V122C146 124.122 146.843 126.157 148.343 127.657C149.843 129.157 151.878 130 154 130C156.122 130 158.157 129.157 159.657 127.657C161.157 126.157 162 124.122 162 122" fill="white"/>
<path d="M162 146H146V162H162V146Z" fill="white"/>
<path d="M162 162H146V178H162V162Z" fill="white"/>
<path d="M162 178H146V194H154C156.122 194 158.157 193.157 159.657 191.657C161.157 190.157 162 188.122 162 186" fill="white"/>
<path d="M162 210H146V226H162V210Z" fill="white"/>
<path d="M146 274H162V266C162 263.878 161.157 261.843 159.657 260.343C158.157 258.843 156.122 258 154 258C151.878 258 149.843 258.843 148.343 260.343C146.843 261.843 146 263.878 146 266" fill="white"/>
<path d="M162 274H146V290H162V274Z" fill="white"/>
<path d="M162 306V290H146V298C146 300.122 146.843 302.157 148.343 303.657C149.843 305.157 151.878 306 154 306" fill="white"/>
<path d="M162 322H146V338H162V322Z" fill="white"/>
<path d="M146 370H162V362C162 359.878 161.157 357.843 159.657 356.343C158.157 354.843 156.122 354 154 354C151.878 354 149.843 354.843 148.343 356.343C146.843 357.843 146 359.878 146 362" fill="white"/>
<path d="M162 370H146V378C146 380.122 146.843 382.157 148.343 383.657C149.843 385.157 151.878 386 154 386C156.122 386 158.157 385.157 159.657 383.657C161.157 382.157 162 380.122 162 378" fill="white"/>
<path d="M146 418H162V402H154C151.878 402 149.843 402.843 148.343 404.343C146.843 405.843 146 407.878 146 410" fill="white"/>
<path d="M162 418H146V426C146 428.122 146.843 430.157 148.343 431.657C149.843 433.157 151.878 434 154 434C156.122 434 158.157 433.157 159.657 431.657C161.157 430.157 162 428.122 162 426" fill="white"/>
<path d="M162 466V450H154C151.878 450 149.843 450.843 148.343 452.343C146.843 453.843 146 455.878 146 458C146 460.122 146.843 462.157 148.343 463.657C149.843 465.157 151.878 466 154 466" fill="white"/>
<path d="M162 66H178V50H170C167.878 50 165.843 50.8428 164.343 52.3431C162.843 53.8434 162 55.8783 162 58" fill="white"/>
<path d="M178 66H162V82H178V66Z" fill="white"/>
<path d="M162 98V114H170C172.122 114 174.157 113.157 175.657 111.657C177.157 110.157 178 108.122 178 106C178 103.878 177.157 101.843 175.657 100.343C174.157 98.8429 172.122 98 170 98" fill="white"/>
<path d="M162 146H178V130H170C167.878 130 165.843 130.843 164.343 132.343C162.843 133.843 162 135.878 162 138" fill="white"/>
<path d="M178 146H162V162H178V146Z" fill="white"/>
<path d="M178 162H162V178H170C172.122 178 174.157 177.157 175.657 175.657C177.157 174.157 178 172.122 178 170" fill="white"/>
<path d="M162 210V226H178V218C178 215.878 177.157 213.843 175.657 212.343C174.157 210.843 172.122 210 170 210" fill="white"/>
<path d="M178 226H162V234C162 236.122 162.843 238.157 164.343 239.657C165.843 241.157 167.878 242 170 242C172.122 242 174.157 241.157 175.657 239.657C177.157 238.157 178 236.122 178 234" fill="white"/>
<path d="M178 290H162V306H178V290Z" fill="white"/>
<path d="M178 306H162V322H178V306Z" fill="white"/>
<path d="M178 322H162V338H170C172.122 338 174.157 337.157 175.657 335.657C177.157 334.157 178 332.122 178 330" fill="white"/>
<path d="M162 402H178V394C178 391.878 177.157 389.843 175.657 388.343C174.157 386.843 172.122 386 170 386C167.878 386 165.843 386.843 164.343 388.343C162.843 389.843 162 391.878 162 394" fill="white"/>
<path d="M178 402H162V418H170C172.122 418 174.157 417.157 175.657 415.657C177.157 414.157 178 412.122 178 410" fill="white"/>
<path d="M162 450H178V442C178 439.878 177.157 437.843 175.657 436.343C174.157 434.843 172.122 434 170 434C167.878 434 165.843 434.843 164.343 436.343C162.843 437.843 162 439.878 162 442" fill="white"/>
<path d="M178 450H162V466H170C172.122 466 174.157 465.157 175.657 463.657C177.157 462.157 178 460.122 178 458" fill="white"/>
<path d="M178 34H194V18H186C183.878 18 181.843 18.8428 180.343 20.3431C178.843 21.8434 178 23.8783 178 26" fill="white"/>
<path d="M194 34H178V50H194V34Z" fill="white"/>
<path d="M194 50H178V66H194V50Z" fill="white"/>
<path d="M194 66H178V82H194V66Z" fill="white"/>
<path d="M178 130H194V122C194 119.878 193.157 117.843 191.657 116.343C190.157 114.843 188.122 114 186 114C183.878 114 181.843 114.843 180.343 116.343C178.843 117.843 178 119.878 178 122" fill="white"/>
<path d="M194 130H178V146H186C188.122 146 190.157 145.157 191.657 143.657C193.157 142.157 194 140.122 194 138" fill="white"/>
<path d="M178 194H194V178H186C183.878 178 181.843 178.843 180.343 180.343C178.843 181.843 178 183.878 178 186" fill="white"/>
<path d="M194 194H178V202C178 204.122 178.843 206.157 180.343 207.657C181.843 209.157 183.878 210 186 210C188.122 210 190.157 209.157 191.657 207.657C193.157 206.157 194 204.122 194 202" fill="white"/>
<path d="M178 290H194V274H186C183.878 274 181.843 274.843 180.343 276.343C178.843 277.843 178 279.878 178 282" fill="white"/>
<path d="M194 290H178V306H194V290Z" fill="white"/>
<path d="M194 306H178V322H194V306Z" fill="white"/>
<path d="M178 370H194V362C194 359.878 193.157 357.843 191.657 356.343C190.157 354.843 188.122 354 186 354C183.878 354 181.843 354.843 180.343 356.343C178.843 357.843 178 359.878 178 362" fill="white"/>
<path d="M194 370H178V378C178 380.122 178.843 382.157 180.343 383.657C181.843 385.157 183.878 386 186 386C188.122 386 190.157 385.157 191.657 383.657C193.157 382.157 194 380.122 194 378" fill="white"/>
<path d="M210 18H194V34H210V18Z" fill="white"/>
<path d="M210 34H194V50H210V34Z" fill="white"/>
<path d="M210 50H194V66H210V50Z" fill="white"/>
<path d="M210 66H194V82H202C204.122 82 206.157 81.1572 207.657 79.6569C209.157 78.1566 210 76.1217 210 74" fill="white"/>
<path d="M202 114C206.418 114 210 110.418 210 106C210 101.582 206.418 98 202 98C197.582 98 194 101.582 194 106C194 110.418 197.582 114 202 114Z" fill="white"/>
<path d="M210 178H194V194H210V178Z" fill="white"/>
<path d="M210 226V210H202C199.878 210 197.843 210.843 196.343 212.343C194.843 213.843 194 215.878 194 218C194 220.122 194.843 222.157 196.343 223.657C197.843 225.157 199.878 226 202 226" fill="white"/>
<path d="M210 274H194V290H210V274Z" fill="white"/>
<path d="M210 290H194V306H210V290Z" fill="white"/>
<path d="M210 306H194V322H202C204.122 322 206.157 321.157 207.657 319.657C209.157 318.157 210 316.122 210 314" fill="white"/>
<path d="M210 354V338H202C199.878 338 197.843 338.843 196.343 340.343C194.843 341.843 194 343.878 194 346C194 348.122 194.843 350.157 196.343 351.657C197.843 353.157 199.878 354 202 354" fill="white"/>
<path d="M194 418H210V410C210 407.878 209.157 405.843 207.657 404.343C206.157 402.843 204.122 402 202 402C199.878 402 197.843 402.843 196.343 404.343C194.843 405.843 194 407.878 194 410" fill="white"/>
<path d="M210 434V418H194V426C194 428.122 194.843 430.157 196.343 431.657C197.843 433.157 199.878 434 202 434" fill="white"/>
<path d="M202 482C206.418 482 210 478.418 210 474C210 469.582 206.418 466 202 466C197.582 466 194 469.582 194 474C194 478.418 197.582 482 202 482Z" fill="white"/>
<path d="M210 18V34H218C220.122 34 222.157 33.1571 223.657 31.6569C225.157 30.1566 226 28.1217 226 26C226 23.8783 225.157 21.8434 223.657 20.3431C222.157 18.8429 220.122 18 218 18" fill="white"/>
<path d="M226 50H210V66H226V50Z" fill="white"/>
<path d="M210 130H226V122C226 119.878 225.157 117.843 223.657 116.343C222.157 114.843 220.122 114 218 114C215.878 114 213.843 114.843 212.343 116.343C210.843 117.843 210 119.878 210 122" fill="white"/>
<path d="M226 130H210V146H226V130Z" fill="white"/>
<path d="M226 146H210V154C210 156.122 210.843 158.157 212.343 159.657C213.843 161.157 215.878 162 218 162C220.122 162 222.157 161.157 223.657 159.657C225.157 158.157 226 156.122 226 154" fill="white"/>
<path d="M226 178H210V194H226V178Z" fill="white"/>
<path d="M226 194H210V210H226V194Z" fill="white"/>
<path d="M226 210H210V226H218C220.122 226 222.157 225.157 223.657 223.657C225.157 222.157 226 220.122 226 218" fill="white"/>
<path d="M218 258C222.418 258 226 254.418 226 250C226 245.582 222.418 242 218 242C213.582 242 210 245.582 210 250C210 254.418 213.582 258 218 258Z" fill="white"/>
<path d="M226 274H210V290H226V274Z" fill="white"/>
<path d="M210 338H226V330C226 327.878 225.157 325.843 223.657 324.343C222.157 322.843 220.122 322 218 322C215.878 322 213.843 322.843 212.343 324.343C210.843 325.843 210 327.878 210 330" fill="white"/>
<path d="M226 338H210V354H226V338Z" fill="white"/>
<path d="M226 354H210V370H226V354Z" fill="white"/>
<path d="M226 386V370H210V378C210 380.122 210.843 382.157 212.343 383.657C213.843 385.157 215.878 386 218 386" fill="white"/>
<path d="M210 418V434H218C220.122 434 222.157 433.157 223.657 431.657C225.157 430.157 226 428.122 226 426C226 423.878 225.157 421.843 223.657 420.343C222.157 418.843 220.122 418 218 418" fill="white"/>
<path d="M226 466V450H218C215.878 450 213.843 450.843 212.343 452.343C210.843 453.843 210 455.878 210 458C210 460.122 210.843 462.157 212.343 463.657C213.843 465.157 215.878 466 218 466" fill="white"/>
<path d="M242 50H226V66H242V50Z" fill="white"/>
<path d="M242 66H226V74C226 76.1217 226.843 78.1566 228.343 79.6569C229.843 81.1572 231.878 82 234 82C236.122 82 238.157 81.1572 239.657 79.6569C241.157 78.1566 242 76.1217 242 74" fill="white"/>
<path d="M234 114C238.418 114 242 110.418 242 106C242 101.582 238.418 98 234 98C229.582 98 226 101.582 226 106C226 110.418 229.582 114 234 114Z" fill="white"/>
<path d="M226 178H242V162H234C231.878 162 229.843 162.843 228.343 164.343C226.843 165.843 226 167.878 226 170" fill="white"/>
<path d="M242 178H226V194H242V178Z" fill="white"/>
<path d="M242 274H226V290H242V274Z" fill="white"/>
<path d="M242 290H226V306H242V290Z" fill="white"/>
<path d="M242 322V306H226V314C226 316.122 226.843 318.157 228.343 319.657C229.843 321.157 231.878 322 234 322" fill="white"/>
<path d="M226 370V386H234C236.122 386 238.157 385.157 239.657 383.657C241.157 382.157 242 380.122 242 378C242 375.878 241.157 373.843 239.657 372.343C238.157 370.843 236.122 370 234 370" fill="white"/>
<path d="M234 418C238.418 418 242 414.418 242 410C242 405.582 238.418 402 234 402C229.582 402 226 405.582 226 410C226 414.418 229.582 418 234 418Z" fill="white"/>
<path d="M226 450H242V442C242 439.878 241.157 437.843 239.657 436.343C238.157 434.843 236.122 434 234 434C231.878 434 229.843 434.843 228.343 436.343C226.843 437.843 226 439.878 226 442" fill="white"/>
<path d="M242 450H226V466H242V450Z" fill="white"/>
<path d="M242 482V466H226V474C226 476.122 226.843 478.157 228.343 479.657C229.843 481.157 231.878 482 234 482" fill="white"/>
<path d="M258 34V18H250C247.878 18 245.843 18.8429 244.343 20.3431C242.843 21.8434 242 23.8783 242 26C242 28.1217 242.843 30.1566 244.343 31.6569C245.843 33.1571 247.878 34 250 34" fill="white"/>
<path d="M242 50V66H250C252.122 66 254.157 65.1571 255.657 63.6569C257.157 62.1566 258 60.1217 258 58C258 55.8783 257.157 53.8434 255.657 52.3431C254.157 50.8429 252.122 50 250 50" fill="white"/>
<path d="M250 98C254.418 98 258 94.4183 258 90C258 85.5817 254.418 82 250 82C245.582 82 242 85.5817 242 90C242 94.4183 245.582 98 250 98Z" fill="white"/>
<path d="M242 130H258V122C258 119.878 257.157 117.843 255.657 116.343C254.157 114.843 252.122 114 250 114C247.878 114 245.843 114.843 244.343 116.343C242.843 117.843 242 119.878 242 122" fill="white"/>
<path d="M258 130H242V146H258V130Z" fill="white"/>
<path d="M258 146H242V162H258V146Z" fill="white"/>
<path d="M258 162H242V178H258V162Z" fill="white"/>
<path d="M258 178H242V194H258V178Z" fill="white"/>
<path d="M258 194H242V202C242 204.122 242.843 206.157 244.343 207.657C245.843 209.157 247.878 210 250 210C252.122 210 254.157 209.157 255.657 207.657C257.157 206.157 258 204.122 258 202" fill="white"/>
<path d="M250 258C254.418 258 258 254.418 258 250C258 245.582 254.418 242 250 242C245.582 242 242 245.582 242 250C242 254.418 245.582 258 250 258Z" fill="white"/>
<path d="M242 274V290H250C252.122 290 254.157 289.157 255.657 287.657C257.157 286.157 258 284.122 258 282C258 279.878 257.157 277.843 255.657 276.343C254.157 274.843 252.122 274 250 274" fill="white"/>
<path d="M242 306V322H258V314C258 311.878 257.157 309.843 255.657 308.343C254.157 306.843 252.122 306 250 306" fill="white"/>
<path d="M258 322H242V338H258V322Z" fill="white"/>
<path d="M258 338H242V354H258V338Z" fill="white"/>
<path d="M258 370V354H242V362C242 364.122 242.843 366.157 244.343 367.657C245.843 369.157 247.878 370 250 370" fill="white"/>
<path d="M250 402C254.418 402 258 398.418 258 394C258 389.582 254.418 386 250 386C245.582 386 242 389.582 242 394C242 398.418 245.582 402 250 402Z" fill="white"/>
<path d="M258 434V418H250C247.878 418 245.843 418.843 244.343 420.343C242.843 421.843 242 423.878 242 426C242 428.122 242.843 430.157 244.343 431.657C245.843 433.157 247.878 434 250 434" fill="white"/>
<path d="M258 466H242V482H258V466Z" fill="white"/>
<path d="M258 18V34H266C268.122 34 270.157 33.1571 271.657 31.6569C273.157 30.1566 274 28.1217 274 26C274 23.8783 273.157 21.8434 271.657 20.3431C270.157 18.8429 268.122 18 266 18" fill="white"/>
<path d="M266 82C270.418 82 274 78.4183 274 74C274 69.5817 270.418 66 266 66C261.582 66 258 69.5817 258 74C258 78.4183 261.582 82 266 82Z" fill="white"/>
<path d="M274 130H258V146H274V130Z" fill="white"/>
<path d="M258 162V178H266C268.122 178 270.157 177.157 271.657 175.657C273.157 174.157 274 172.122 274 170C274 167.878 273.157 165.843 271.657 164.343C270.157 162.843 268.122 162 266 162" fill="white"/>
<path d="M266 242C270.418 242 274 238.418 274 234C274 229.582 270.418 226 266 226C261.582 226 258 229.582 258 234C258 238.418 261.582 242 266 242Z" fill="white"/>
<path d="M274 274V258H266C263.878 258 261.843 258.843 260.343 260.343C258.843 261.843 258 263.878 258 266C258 268.122 258.843 270.157 260.343 271.657C261.843 273.157 263.878 274 266 274" fill="white"/>
<path d="M258 338V354H274V346C274 343.878 273.157 341.843 271.657 340.343C270.157 338.843 268.122 338 266 338" fill="white"/>
<path d="M274 354H258V370H274V354Z" fill="white"/>
<path d="M274 370H258V378C258 380.122 258.843 382.157 260.343 383.657C261.843 385.157 263.878 386 266 386C268.122 386 270.157 385.157 271.657 383.657C273.157 382.157 274 380.122 274 378" fill="white"/>
<path d="M258 418H274V410C274 407.878 273.157 405.843 271.657 404.343C270.157 402.843 268.122 402 266 402C263.878 402 261.843 402.843 260.343 404.343C258.843 405.843 258 407.878 258 410" fill="white"/>
<path d="M274 418H258V434H274V418Z" fill="white"/>
<path d="M274 434H258V450H274V434Z" fill="white"/>
<path d="M274 450H258V466H274V450Z" fill="white"/>
<path d="M274 466H258V482H266C268.122 482 270.157 481.157 271.657 479.657C273.157 478.157 274 476.122 274 474" fill="white"/>
<path d="M290 66V50H282C279.878 50 277.843 50.8429 276.343 52.3431C274.843 53.8434 274 55.8783 274 58C274 60.1217 274.843 62.1566 276.343 63.6569C277.843 65.1571 279.878 66 282 66" fill="white"/>
<path d="M274 114H290V98H282C279.878 98 277.843 98.8428 276.343 100.343C274.843 101.843 274 103.878 274 106" fill="white"/>
<path d="M290 114H274V130H290V114Z" fill="white"/>
<path d="M290 130H274V146H282C284.122 146 286.157 145.157 287.657 143.657C289.157 142.157 290 140.122 290 138" fill="white"/>
<path d="M290 210V194H282C279.878 194 277.843 194.843 276.343 196.343C274.843 197.843 274 199.878 274 202C274 204.122 274.843 206.157 276.343 207.657C277.843 209.157 279.878 210 282 210" fill="white"/>
<path d="M274 258V274H282C284.122 274 286.157 273.157 287.657 271.657C289.157 270.157 290 268.122 290 266C290 263.878 289.157 261.843 287.657 260.343C286.157 258.843 284.122 258 282 258" fill="white"/>
<path d="M282 402C286.418 402 290 398.418 290 394C290 389.582 286.418 386 282 386C277.582 386 274 389.582 274 394C274 398.418 277.582 402 282 402Z" fill="white"/>
<path d="M290 418H274V434H290V418Z" fill="white"/>
<path d="M306 34V18H298C295.878 18 293.843 18.8429 292.343 20.3431C290.843 21.8434 290 23.8783 290 26C290 28.1217 290.843 30.1566 292.343 31.6569C293.843 33.1571 295.878 34 298 34" fill="white"/>
<path d="M306 50H290V66H306V50Z" fill="white"/>
<path d="M290 98H306V90C306 87.8783 305.157 85.8434 303.657 84.3431C302.157 82.8428 300.122 82 298 82C295.878 82 293.843 82.8428 292.343 84.3431C290.843 85.8434 290 87.8783 290 90" fill="white"/>
<path d="M306 98H290V114H306V98Z" fill="white"/>
<path d="M290 162H306V146H298C295.878 146 293.843 146.843 292.343 148.343C290.843 149.843 290 151.878 290 154" fill="white"/>
<path d="M306 162H290V178H306V162Z" fill="white"/>
<path d="M306 178H290V194H306V178Z" fill="white"/>
<path d="M306 194H290V210H306V194Z" fill="white"/>
<path d="M306 210H290V218C290 220.122 290.843 222.157 292.343 223.657C293.843 225.157 295.878 226 298 226C300.122 226 302.157 225.157 303.657 223.657C305.157 222.157 306 220.122 306 218" fill="white"/>
<path d="M298 258C302.418 258 306 254.418 306 250C306 245.582 302.418 242 298 242C293.582 242 290 245.582 290 250C290 254.418 293.582 258 298 258Z" fill="white"/>
<path d="M290 322H306V314C306 311.878 305.157 309.843 303.657 308.343C302.157 306.843 300.122 306 298 306C295.878 306 293.843 306.843 292.343 308.343C290.843 309.843 290 311.878 290 314" fill="white"/>
<path d="M306 322H290V338H306V322Z" fill="white"/>
<path d="M306 338H290V354H306V338Z" fill="white"/>
<path d="M306 354H290V362C290 364.122 290.843 366.157 292.343 367.657C293.843 369.157 295.878 370 298 370C300.122 370 302.157 369.157 303.657 367.657C305.157 366.157 306 364.122 306 362" fill="white"/>
<path d="M290 418H306V410C306 407.878 305.157 405.843 303.657 404.343C302.157 402.843 300.122 402 298 402C295.878 402 293.843 402.843 292.343 404.343C290.843 405.843 290 407.878 290 410" fill="white"/>
<path d="M306 418H290V434H306V418Z" fill="white"/>
<path d="M306 450V434H290V442C290 444.122 290.843 446.157 292.343 447.657C293.843 449.157 295.878 450 298 450" fill="white"/>
<path d="M322 18H306V34H322V18Z" fill="white"/>
<path d="M322 34H306V50H322V34Z" fill="white"/>
<path d="M322 50H306V66H322V50Z" fill="white"/>
<path d="M322 98H306V114H322V98Z" fill="white"/>
<path d="M322 114H306V130H322V114Z" fill="white"/>
<path d="M322 130H306V146H322V130Z" fill="white"/>
<path d="M322 146H306V162H322V146Z" fill="white"/>
<path d="M322 162H306V178H322V162Z" fill="white"/>
<path d="M322 178H306V194H322V178Z" fill="white"/>
<path d="M322 194H306V210H314C316.122 210 318.157 209.157 319.657 207.657C321.157 206.157 322 204.122 322 202" fill="white"/>
<path d="M322 290V274H314C311.878 274 309.843 274.843 308.343 276.343C306.843 277.843 306 279.878 306 282C306 284.122 306.843 286.157 308.343 287.657C309.843 289.157 311.878 290 314 290" fill="white"/>
<path d="M322 322H306V338H322V322Z" fill="white"/>
<path d="M322 338H306V354H322V338Z" fill="white"/>
<path d="M322 402V386H314C311.878 386 309.843 386.843 308.343 388.343C306.843 389.843 306 391.878 306 394C306 396.122 306.843 398.157 308.343 399.657C309.843 401.157 311.878 402 314 402" fill="white"/>
<path d="M322 434H306V450H322V434Z" fill="white"/>
<path d="M322 482V466H314C311.878 466 309.843 466.843 308.343 468.343C306.843 469.843 306 471.878 306 474C306 476.122 306.843 478.157 308.343 479.657C309.843 481.157 311.878 482 314 482" fill="white"/>
<path d="M338 18H322V34H338V18Z" fill="white"/>
<path d="M338 34H322V50H338V34Z" fill="white"/>
<path d="M338 50H322V66H338V50Z" fill="white"/>
<path d="M338 66H322V82H338V66Z" fill="white"/>
<path d="M338 82H322V98H338V82Z" fill="white"/>
<path d="M338 98H322V114H338V98Z" fill="white"/>
<path d="M322 146V162H330C332.122 162 334.157 161.157 335.657 159.657C337.157 158.157 338 156.122 338 154C338 151.878 337.157 149.843 335.657 148.343C334.157 146.843 332.122 146 330 146" fill="white"/>
<path d="M330 226C334.418 226 338 222.418 338 218C338 213.582 334.418 210 330 210C325.582 210 322 213.582 322 218C322 222.418 325.582 226 330 226Z" fill="white"/>
<path d="M322 258H338V250C338 247.878 337.157 245.843 335.657 244.343C334.157 242.843 332.122 242 330 242C327.878 242 325.843 242.843 324.343 244.343C322.843 245.843 322 247.878 322 250" fill="white"/>
<path d="M338 258H322V274H338V258Z" fill="white"/>
<path d="M338 274H322V290H330C332.122 290 334.157 289.157 335.657 287.657C337.157 286.157 338 284.122 338 282" fill="white"/>
<path d="M322 322H338V314C338 311.878 337.157 309.843 335.657 308.343C334.157 306.843 332.122 306 330 306C327.878 306 325.843 306.843 324.343 308.343C322.843 309.843 322 311.878 322 314" fill="white"/>
<path d="M338 322H322V338H338V322Z" fill="white"/>
<path d="M338 338H322V354H338V338Z" fill="white"/>
<path d="M338 354H322V370H338V354Z" fill="white"/>
<path d="M338 370H322V386H338V370Z" fill="white"/>
<path d="M338 386H322V402H338V386Z" fill="white"/>
<path d="M338 434H322V450H338V434Z" fill="white"/>
<path d="M338 450H322V466H338V450Z" fill="white"/>
<path d="M338 466H322V482H330C332.122 482 334.157 481.157 335.657 479.657C337.157 478.157 338 476.122 338 474" fill="white"/>
<path d="M338 18V34H354V26C354 23.8783 353.157 21.8434 351.657 20.3431C350.157 18.8429 348.122 18 346 18" fill="white"/>
<path d="M354 34H338V50H346C348.122 50 350.157 49.1572 351.657 47.6569C353.157 46.1566 354 44.1217 354 42" fill="white"/>
<path d="M338 82V98H354V90C354 87.8783 353.157 85.8434 351.657 84.3431C350.157 82.8429 348.122 82 346 82" fill="white"/>
<path d="M354 98H338V114H354V98Z" fill="white"/>
<path d="M354 114H338V130H354V114Z" fill="white"/>
<path d="M354 130H338V138C338 140.122 338.843 142.157 340.343 143.657C341.843 145.157 343.878 146 346 146C348.122 146 350.157 145.157 351.657 143.657C353.157 142.157 354 140.122 354 138" fill="white"/>
<path d="M338 178H354V170C354 167.878 353.157 165.843 351.657 164.343C350.157 162.843 348.122 162 346 162C343.878 162 341.843 162.843 340.343 164.343C338.843 165.843 338 167.878 338 170" fill="white"/>
<path d="M354 178H338V186C338 188.122 338.843 190.157 340.343 191.657C341.843 193.157 343.878 194 346 194C348.122 194 350.157 193.157 351.657 191.657C353.157 190.157 354 188.122 354 186" fill="white"/>
<path d="M354 306V290H346C343.878 290 341.843 290.843 340.343 292.343C338.843 293.843 338 295.878 338 298C338 300.122 338.843 302.157 340.343 303.657C341.843 305.157 343.878 306 346 306" fill="white"/>
<path d="M354 338H338V354H354V338Z" fill="white"/>
<path d="M354 354H338V370H354V354Z" fill="white"/>
<path d="M354 370H338V386H354V370Z" fill="white"/>
<path d="M354 386H338V402H354V386Z" fill="white"/>
<path d="M354 402H338V418H354V402Z" fill="white"/>
<path d="M354 418H338V434H354V418Z" fill="white"/>
<path d="M354 434H338V450H354V434Z" fill="white"/>
<path d="M362 162C366.418 162 370 158.418 370 154C370 149.582 366.418 146 362 146C357.582 146 354 149.582 354 154C354 158.418 357.582 162 362 162Z" fill="white"/>
<path d="M354 210H370V202C370 199.878 369.157 197.843 367.657 196.343C366.157 194.843 364.122 194 362 194C359.878 194 357.843 194.843 356.343 196.343C354.843 197.843 354 199.878 354 202" fill="white"/>
<path d="M370 210H354V218C354 220.122 354.843 222.157 356.343 223.657C357.843 225.157 359.878 226 362 226C364.122 226 366.157 225.157 367.657 223.657C369.157 222.157 370 220.122 370 218" fill="white"/>
<path d="M354 258H370V250C370 247.878 369.157 245.843 367.657 244.343C366.157 242.843 364.122 242 362 242C359.878 242 357.843 242.843 356.343 244.343C354.843 245.843 354 247.878 354 250" fill="white"/>
<path d="M370 274V258H354V266C354 268.122 354.843 270.157 356.343 271.657C357.843 273.157 359.878 274 362 274" fill="white"/>
<path d="M354 290V306H370V298C370 295.878 369.157 293.843 367.657 292.343C366.157 290.843 364.122 290 362 290" fill="white"/>
<path d="M370 306H354V314C354 316.122 354.843 318.157 356.343 319.657C357.843 321.157 359.878 322 362 322C364.122 322 366.157 321.157 367.657 319.657C369.157 318.157 370 316.122 370 314" fill="white"/>
<path d="M370 338H354V354H370V338Z" fill="white"/>
<path d="M370 402H354V418H370V402Z" fill="white"/>
<path d="M370 418H354V434H370V418Z" fill="white"/>
<path d="M370 434H354V450H370V434Z" fill="white"/>
<path d="M386 242V226H378C375.878 226 373.843 226.843 372.343 228.343C370.843 229.843 370 231.878 370 234C370 236.122 370.843 238.157 372.343 239.657C373.843 241.157 375.878 242 378 242" fill="white"/>
<path d="M370 258V274H386V266C386 263.878 385.157 261.843 383.657 260.343C382.157 258.843 380.122 258 378 258" fill="white"/>
<path d="M386 274H370V282C370 284.122 370.843 286.157 372.343 287.657C373.843 289.157 375.878 290 378 290C380.122 290 382.157 289.157 383.657 287.657C385.157 286.157 386 284.122 386 282" fill="white"/>
<path d="M370 338H386V322H378C375.878 322 373.843 322.843 372.343 324.343C370.843 325.843 370 327.878 370 330" fill="white"/>
<path d="M386 338H370V354H386V338Z" fill="white"/>
<path d="M378 386C382.418 386 386 382.418 386 378C386 373.582 382.418 370 378 370C373.582 370 370 373.582 370 378C370 382.418 373.582 386 378 386Z" fill="white"/>
<path d="M386 402H370V418H386V402Z" fill="white"/>
<path d="M370 434V450H378C380.122 450 382.157 449.157 383.657 447.657C385.157 446.157 386 444.122 386 442C386 439.878 385.157 437.843 383.657 436.343C382.157 434.843 380.122 434 378 434" fill="white"/>
<path d="M402 162V146H394C391.878 146 389.843 146.843 388.343 148.343C386.843 149.843 386 151.878 386 154C386 156.122 386.843 158.157 388.343 159.657C389.843 161.157 391.878 162 394 162" fill="white"/>
<path d="M402 226H386V242H402V226Z" fill="white"/>
<path d="M394 306C398.418 306 402 302.418 402 298C402 293.582 398.418 290 394 290C389.582 290 386 293.582 386 298C386 302.418 389.582 306 394 306Z" fill="white"/>
<path d="M402 322H386V338H402V322Z" fill="white"/>
<path d="M402 338H386V354H402V338Z" fill="white"/>
<path d="M402 402H386V418H402V402Z" fill="white"/>
<path d="M402 418H386V426C386 428.122 386.843 430.157 388.343 431.657C389.843 433.157 391.878 434 394 434C396.122 434 398.157 433.157 399.657 431.657C401.157 430.157 402 428.122 402 426" fill="white"/>
<path d="M418 146H402V162H418V146Z" fill="white"/>
<path d="M418 178V162H402V170C402 172.122 402.843 174.157 404.343 175.657C405.843 177.157 407.878 178 410 178" fill="white"/>
<path d="M402 226H418V218C418 215.878 417.157 213.843 415.657 212.343C414.157 210.843 412.122 210 410 210C407.878 210 405.843 210.843 404.343 212.343C402.843 213.843 402 215.878 402 218" fill="white"/>
<path d="M418 226H402V242H418V226Z" fill="white"/>
<path d="M410 290C414.418 290 418 286.418 418 282C418 277.582 414.418 274 410 274C405.582 274 402 277.582 402 282C402 286.418 405.582 290 410 290Z" fill="white"/>
<path d="M402 322H418V306H410C407.878 306 405.843 306.843 404.343 308.343C402.843 309.843 402 311.878 402 314" fill="white"/>
<path d="M418 322H402V338H418V322Z" fill="white"/>
<path d="M418 338H402V354H418V338Z" fill="white"/>
<path d="M418 354H402V370H418V354Z" fill="white"/>
<path d="M418 370H402V386H418V370Z" fill="white"/>
<path d="M418 386H402V402H418V386Z" fill="white"/>
<path d="M418 402H402V418H410C412.122 418 414.157 417.157 415.657 415.657C417.157 414.157 418 412.122 418 410" fill="white"/>
<path d="M410 482C414.418 482 418 478.418 418 474C418 469.582 414.418 466 410 466C405.582 466 402 469.582 402 474C402 478.418 405.582 482 410 482Z" fill="white"/>
<path d="M418 146V162H434V154C434 151.878 433.157 149.843 431.657 148.343C430.157 146.843 428.122 146 426 146" fill="white"/>
<path d="M434 162H418V178H434V162Z" fill="white"/>
<path d="M434 194V178H418V186C418 188.122 418.843 190.157 420.343 191.657C421.843 193.157 423.878 194 426 194" fill="white"/>
<path d="M418 226V242H434V234C434 231.878 433.157 229.843 431.657 228.343C430.157 226.843 428.122 226 426 226" fill="white"/>
<path d="M434 258V242H418V250C418 252.122 418.843 254.157 420.343 255.657C421.843 257.157 423.878 258 426 258" fill="white"/>
<path d="M434 306H418V322H434V306Z" fill="white"/>
<path d="M434 386H418V402H434V386Z" fill="white"/>
<path d="M418 434H434V426C434 423.878 433.157 421.843 431.657 420.343C430.157 418.843 428.122 418 426 418C423.878 418 421.843 418.843 420.343 420.343C418.843 421.843 418 423.878 418 426" fill="white"/>
<path d="M434 434H418V450H434V434Z" fill="white"/>
<path d="M434 466V450H418V458C418 460.122 418.843 462.157 420.343 463.657C421.843 465.157 423.878 466 426 466" fill="white"/>
<path d="M434 162V178H450V170C450 167.878 449.157 165.843 447.657 164.343C446.157 162.843 444.122 162 442 162" fill="white"/>
<path d="M450 178H434V194H442C444.122 194 446.157 193.157 447.657 191.657C449.157 190.157 450 188.122 450 186" fill="white"/>
<path d="M450 226V210H442C439.878 210 437.843 210.843 436.343 212.343C434.843 213.843 434 215.878 434 218C434 220.122 434.843 222.157 436.343 223.657C437.843 225.157 439.878 226 442 226" fill="white"/>
<path d="M434 242V258H450V250C450 247.878 449.157 245.843 447.657 244.343C446.157 242.843 444.122 242 442 242" fill="white"/>
<path d="M450 274V258H434V266C434 268.122 434.843 270.157 436.343 271.657C437.843 273.157 439.878 274 442 274" fill="white"/>
<path d="M434 306V322H442C444.122 322 446.157 321.157 447.657 319.657C449.157 318.157 450 316.122 450 314C450 311.878 449.157 309.843 447.657 308.343C446.157 306.843 444.122 306 442 306" fill="white"/>
<path d="M434 354H450V346C450 343.878 449.157 341.843 447.657 340.343C446.157 338.843 444.122 338 442 338C439.878 338 437.843 338.843 436.343 340.343C434.843 341.843 434 343.878 434 346" fill="white"/>
<path d="M450 370V354H434V362C434 364.122 434.843 366.157 436.343 367.657C437.843 369.157 439.878 370 442 370" fill="white"/>
<path d="M434 386V402H450V394C450 391.878 449.157 389.843 447.657 388.343C446.157 386.843 444.122 386 442 386" fill="white"/>
<path d="M450 418V402H434V410C434 412.122 434.843 414.157 436.343 415.657C437.843 417.157 439.878 418 442 418" fill="white"/>
<path d="M434 450V466H450V458C450 455.878 449.157 453.843 447.657 452.343C446.157 450.843 444.122 450 442 450" fill="white"/>
<path d="M450 482V466H434V474C434 476.122 434.843 478.157 436.343 479.657C437.843 481.157 439.878 482 442 482" fill="white"/>
<path d="M458 162C462.418 162 466 158.418 466 154C466 149.582 462.418 146 458 146C453.582 146 450 149.582 450 154C450 158.418 453.582 162 458 162Z" fill="white"/>
<path d="M450 210V226H458C460.122 226 462.157 225.157 463.657 223.657C465.157 222.157 466 220.122 466 218C466 215.878 465.157 213.843 463.657 212.343C462.157 210.843 460.122 210 458 210" fill="white"/>
<path d="M450 258V274H458C460.122 274 462.157 273.157 463.657 271.657C465.157 270.157 466 268.122 466 266C466 263.878 465.157 261.843 463.657 260.343C462.157 258.843 460.122 258 458 258" fill="white"/>
<path d="M466 354H450V370H466V354Z" fill="white"/>
<path d="M466 370H450V378C450 380.122 450.843 382.157 452.343 383.657C453.843 385.157 455.878 386 458 386C460.122 386 462.157 385.157 463.657 383.657C465.157 382.157 466 380.122 466 378" fill="white"/>
<path d="M466 402H450V418H466V402Z" fill="white"/>
<path d="M458 450C462.418 450 466 446.418 466 442C466 437.582 462.418 434 458 434C453.582 434 450 437.582 450 442C450 446.418 453.582 450 458 450Z" fill="white"/>
<path d="M450 466V482H458C460.122 482 462.157 481.157 463.657 479.657C465.157 478.157 466 476.122 466 474C466 471.878 465.157 469.843 463.657 468.343C462.157 466.843 460.122 466 458 466" fill="white"/>
<path d="M474 178C478.418 178 482 174.418 482 170C482 165.582 478.418 162 474 162C469.582 162 466 165.582 466 170C466 174.418 469.582 178 474 178Z" fill="white"/>
<path d="M474 210C478.418 210 482 206.418 482 202C482 197.582 478.418 194 474 194C469.582 194 466 197.582 466 202C466 206.418 469.582 210 474 210Z" fill="white"/>
<path d="M474 242C478.418 242 482 238.418 482 234C482 229.582 478.418 226 474 226C469.582 226 466 229.582 466 234C466 238.418 469.582 242 474 242Z" fill="white"/>
<path d="M466 322H482V314C482 311.878 481.157 309.843 479.657 308.343C478.157 306.843 476.122 306 474 306C471.878 306 469.843 306.843 468.343 308.343C466.843 309.843 466 311.878 466 314" fill="white"/>
<path d="M482 322H466V338H482V322Z" fill="white"/>
<path d="M482 338H466V354H482V338Z" fill="white"/>
<path d="M482 354H466V370H474C476.122 370 478.157 369.157 479.657 367.657C481.157 366.157 482 364.122 482 362" fill="white"/>
<path d="M466 402H482V394C482 391.878 481.157 389.843 479.657 388.343C478.157 386.843 476.122 386 474 386C471.878 386 469.843 386.843 468.343 388.343C466.843 389.843 466 391.878 466 394" fill="white"/>
<path d="M482 402H466V418H474C476.122 418 478.157 417.157 479.657 415.657C481.157 414.157 482 412.122 482 410" fill="white"/>
</mask>
<g mask="url(#mask0_103_3)">
<path d="M500 0H0V500H500V0Z" fill="#3D1A06"/>
</g>
<mask id="mask1_103_3" style="mask-type:luminance" maskUnits="userSpaceOnUse" x="18" y="18" width="112" height="112">
<path fill-rule="evenodd" clip-rule="evenodd" d="M18 58V90C18 100.609 22.2143 110.783 29.7157 118.284C33.4301 121.999 37.8396 124.945 42.6927 126.955C47.5457 128.965 52.7471 130 58 130H90C100.609 130 110.783 125.786 118.284 118.284C125.786 110.783 130 100.609 130 90V58C130 52.7471 128.965 47.5457 126.955 42.6927C124.945 37.8396 121.999 33.4301 118.284 29.7157C114.57 26.0014 110.16 23.055 105.307 21.0448C100.454 19.0346 95.2529 18 90 18H58C52.7471 18 47.5457 19.0346 42.6927 21.0448C37.8396 23.055 33.4301 26.0014 29.7157 29.7157C22.2143 37.2172 18 47.3913 18 58ZM58 34H90C96.3652 34 102.47 36.5286 106.971 41.0294C111.471 45.5303 114 51.6348 114 58V90C114 96.3652 111.471 102.47 106.971 106.971C102.47 111.471 96.3652 114 90 114H58C51.6348 114 45.5303 111.471 41.0294 106.971C36.5286 102.47 34 96.3652 34 90V58C34 51.6348 36.5286 45.5303 41.0294 41.0294C45.5303 36.5286 51.6348 34 58 34Z" fill="white"/>
</mask>
<g mask="url(#mask1_103_3)">
<path d="M130 18H18V130H130V18Z" fill="#3D1A06"/>
</g>
<mask id="mask2_103_3" style="mask-type:luminance" maskUnits="userSpaceOnUse" x="50" y="50" width="48" height="48">
<path d="M74 98C87.2548 98 98 87.2548 98 74C98 60.7452 87.2548 50 74 50C60.7452 50 50 60.7452 50 74C50 87.2548 60.7452 98 74 98Z" fill="white"/>
</mask>
<g mask="url(#mask2_103_3)">
<path d="M98 50H50V98H98V50Z" fill="#3D1A06"/>
</g>
<mask id="mask3_103_3" style="mask-type:luminance" maskUnits="userSpaceOnUse" x="370" y="18" width="112" height="112">
<path fill-rule="evenodd" clip-rule="evenodd" d="M442 18H410C399.391 18 389.217 22.2143 381.716 29.7157C374.214 37.2172 370 47.3913 370 58V90C370 100.609 374.214 110.783 381.716 118.284C389.217 125.786 399.391 130 410 130H442C447.253 130 452.454 128.965 457.307 126.955C462.16 124.945 466.57 121.999 470.284 118.284C473.999 114.57 476.945 110.16 478.955 105.307C480.965 100.454 482 95.2529 482 90V58C482 47.3913 477.786 37.2172 470.284 29.7157C462.783 22.2143 452.609 18 442 18ZM466 58V90C466 96.3652 463.471 102.47 458.971 106.971C454.47 111.471 448.365 114 442 114H410C403.635 114 397.53 111.471 393.029 106.971C388.529 102.47 386 96.3652 386 90V58C386 51.6348 388.529 45.5303 393.029 41.0294C397.53 36.5286 403.635 34 410 34H442C448.365 34 454.47 36.5286 458.971 41.0294C463.471 45.5303 466 51.6348 466 58Z" fill="white"/>
</mask>
<g mask="url(#mask3_103_3)">
<path d="M482 18H370V130H482V18Z" fill="#3D1A06"/>
</g>
<mask id="mask4_103_3" style="mask-type:luminance" maskUnits="userSpaceOnUse" x="402" y="50" width="48" height="48">
<path d="M402 74C402 87.2548 412.745 98 426 98C439.255 98 450 87.2548 450 74C450 60.7452 439.255 50 426 50C412.745 50 402 60.7452 402 74Z" fill="white"/>
</mask>
<g mask="url(#mask4_103_3)">
<path d="M450 50H402V98H450V50Z" fill="#3D1A06"/>
</g>
<mask id="mask5_103_3" style="mask-type:luminance" maskUnits="userSpaceOnUse" x="18" y="370" width="112" height="112">
<path fill-rule="evenodd" clip-rule="evenodd" d="M58 482H90C100.609 482 110.783 477.786 118.284 470.284C121.999 466.57 124.945 462.16 126.955 457.307C128.965 452.454 130 447.253 130 442V410C130 399.391 125.786 389.217 118.284 381.716C110.783 374.214 100.609 370 90 370H58C47.3913 370 37.2172 374.214 29.7157 381.716C22.2143 389.217 18 399.391 18 410V442C18 447.253 19.0346 452.454 21.0448 457.307C23.055 462.16 26.0014 466.57 29.7157 470.284C37.2172 477.786 47.3913 482 58 482ZM34 442V410C34 403.635 36.5286 397.53 41.0294 393.029C45.5303 388.529 51.6348 386 58 386H90C96.3652 386 102.47 388.529 106.971 393.029C111.471 397.53 114 403.635 114 410V442C114 448.365 111.471 454.47 106.971 458.971C102.47 463.471 96.3652 466 90 466H58C51.6348 466 45.5303 463.471 41.0294 458.971C36.5286 454.47 34 448.365 34 442Z" fill="white"/>
</mask>
<g mask="url(#mask5_103_3)">
<path d="M130 370H18V482H130V370Z" fill="#3D1A06"/>
</g>
<mask id="mask6_103_3" style="mask-type:luminance" maskUnits="userSpaceOnUse" x="50" y="402" width="48" height="48">
<path d="M98 426C98 412.745 87.2548 402 74 402C60.7452 402 50 412.745 50 426C50 439.255 60.7452 450 74 450C87.2548 450 98 439.255 98 426Z" fill="white"/>
</mask>
<g mask="url(#mask6_103_3)">
<path d="M98 402H50V450H98V402Z" fill="#3D1A06"/>
</g>
</svg>
