<svg width="244" height="247" viewBox="0 0 244 247" fill="none" xmlns="http://www.w3.org/2000/svg">
<path d="M0.413352 99.5504C0.261577 105.814 0.666202 115.862 10.6254 121.612C18.4653 126.138 31.6877 125.299 36.5059 125.949C36.3295 111.54 39.9055 96.8969 47.6335 83.5117C63.7835 55.5391 93.7572 40.5235 123.943 42.1122C123.943 42.1122 121.903 59.4186 111.439 63.7697C100.976 68.1208 69.0265 59.2831 67.8739 78.4543C66.437 102.354 61.9407 116.628 46.1036 133.435C33.6256 146.678 4.38698 158.529 5.24729 180.091C5.99623 198.862 17.0987 206.563 36.5844 217.814C52.5603 227.037 72.7119 203.615 77.468 196.574C51.9754 176.371 54.3983 162.502 84.7161 126.283C99.5792 109.091 117.818 115.95 134.777 109.575C147.695 104.72 158.839 76.9895 162.95 54.2845C164.237 47.1804 162.855 42.9011 163.135 36.4583C164.309 9.42367 139.223 -1.70807 124.764 0.336145C110.304 2.38036 127.741 14.1795 103.885 23.5C80.0283 32.8205 71.3706 31.3983 59.6074 40.7727C47.8443 50.1471 39.4571 49.9235 25.547 54.0169C11.6369 58.1102 0.565127 93.2872 0.413352 99.5504Z" fill="url(#paint0_radial_128_4)"/>
<path d="M165.682 91.0455C181.481 66.6807 170.305 59.3542 170.305 59.3542C170.305 59.3542 194.33 49.4633 202.539 59.2083C210.944 69.1862 208.312 82.7366 199.163 93.0551C193.66 99.2615 179.471 115.728 171.918 125.245C153.089 148.972 123.175 194.525 129.048 207.467C130.2 207.333 131.348 207.175 132.491 206.994C156.357 203.201 178.37 189.069 191.394 166.512C202.126 147.923 204.85 126.909 200.638 107.463L200.774 107.264C200.774 107.264 194.305 105.777 215.094 102.769C235.883 99.7603 249.772 125.954 240.826 129.45C231.88 132.945 220.268 149.057 212.5 166.512C204.732 183.966 208.326 218.434 182.671 227.871C157.016 237.307 154.066 227.329 119.331 242.493C84.5953 257.657 91.4324 219.65 93.6824 215.753C95.9324 211.856 93.62 188.011 93.5543 186.975C92.3621 168.179 91.2556 147.957 103.885 139.082C116.514 130.208 149.884 115.41 165.682 91.0455Z" fill="url(#paint1_radial_128_4)"/>
<defs>
<radialGradient id="paint0_radial_128_4" cx="0" cy="0" r="1" gradientUnits="userSpaceOnUse" gradientTransform="translate(115 125) rotate(-150.485) scale(128.465 126.258)">
<stop offset="0.421" stop-color="#F23260"/>
<stop offset="0.851" stop-color="#FFA336"/>
</radialGradient>
<radialGradient id="paint1_radial_128_4" cx="0" cy="0" r="1" gradientUnits="userSpaceOnUse" gradientTransform="translate(115 125) rotate(-150.485) scale(128.465 126.258)">
<stop offset="0.421" stop-color="#F23260"/>
<stop offset="0.851" stop-color="#FFA336"/>
</radialGradient>
</defs>
</svg>
