<svg width="44" height="44" viewBox="0 0 44 44" fill="none" xmlns="http://www.w3.org/2000/svg">
<path fill-rule="evenodd" clip-rule="evenodd" d="M-4.80549e-06 22.6667L2.95035 22.6667C12.9743 22.6667 21.1352 32.1581 21.4314 44L22.5686 44C22.8648 32.1581 31.0257 22.6667 41.0496 22.6667L43.9917 22.6667C43.9972 22.4452 44 22.223 44 22C44 21.777 43.9972 21.5547 43.9917 21.3333L41.0496 21.3333C31.0257 21.3333 22.8648 11.8418 22.5686 -6.59318e-06L21.4314 -8.6159e-06C21.1352 11.8418 12.9743 21.3333 2.95035 21.3333L0.00832274 21.3333L-4.80549e-06 22.6667ZM10 22.1982L14.2837 22.2703C18.344 22.2703 21.6497 26.1182 21.7697 30.9189L22.2303 30.9189C22.3503 26.1182 25.656 22.2703 29.7163 22.2703L34 22.1982C34.0014 22.1417 34.001 22.1136 34.0006 22.078C34.0003 22.057 34 22.0335 34 22C34 21.9665 34.0003 21.943 34.0006 21.922C34.001 21.8864 34.0014 21.8583 34 21.8018L29.7163 21.7297C25.656 21.7297 22.3503 17.8819 22.2303 13.0811L21.7697 13.0811C21.6497 17.8819 18.344 21.7297 14.2837 21.7297L10 21.8018L10 22.1982Z" fill="white"/>
</svg>
