<svg width="16" height="16" viewBox="0 0 16 16" fill="none" xmlns="http://www.w3.org/2000/svg">
<path fill-rule="evenodd" clip-rule="evenodd" d="M5.44186 0.761905C4.23788 0.761905 3.26744 1.72534 3.26744 2.92063C3.26744 4.11593 4.23788 5.07936 5.44186 5.07936H7.61628V0.761905H5.44186ZM8.38372 0.761905V5.07936H10.5581C11.7621 5.07936 12.7326 4.11593 12.7326 2.92063C12.7326 1.72534 11.7621 0.761905 10.5581 0.761905H8.38372ZM12.0144 5.46032C12.9026 4.95831 13.5 4.01029 13.5 2.92063C13.5 1.30456 12.186 0 10.5581 0H5.44186C3.81404 0 2.5 1.30456 2.5 2.92063C2.5 4.01029 3.09739 4.95831 3.98556 5.46032C3.09739 5.96232 2.5 6.91035 2.5 8C2.5 9.08965 3.09739 10.0377 3.98556 10.5397C3.09739 11.0417 2.5 11.9897 2.5 13.0794C2.5 14.6954 3.81404 16 5.44186 16C7.06968 16 8.38372 14.6954 8.38372 13.0794V9.96965C8.92125 10.5544 9.69565 10.9206 10.5581 10.9206C12.186 10.9206 13.5 9.61608 13.5 8C13.5 6.91035 12.9026 5.96232 12.0144 5.46032ZM8.38372 6.03035V5.84127H8.57418C8.50783 5.90138 8.44427 5.96448 8.38372 6.03035ZM10.5581 5.84127C9.35416 5.84127 8.38372 6.80471 8.38372 8C8.38372 9.19529 9.35416 10.1587 10.5581 10.1587C11.7621 10.1587 12.7326 9.19529 12.7326 8C12.7326 6.80471 11.7621 5.84127 10.5581 5.84127ZM7.61628 5.84127V10.1587H5.44186C4.23788 10.1587 3.26744 9.19529 3.26744 8C3.26744 6.80471 4.23788 5.84127 5.44186 5.84127H7.61628ZM5.44186 10.9206C4.23788 10.9206 3.26744 11.8841 3.26744 13.0794C3.26744 14.2747 4.23788 15.2381 5.44186 15.2381C6.64584 15.2381 7.61628 14.2747 7.61628 13.0794V10.9206H5.44186Z" fill="white"/>
</svg>
