<svg width="78" height="87" viewBox="0 0 78 87" fill="none" xmlns="http://www.w3.org/2000/svg">
<path d="M52.1477 56.6814C57.1053 55.651 61.6039 53.8644 65.1008 51.2418C71.0728 46.7628 74.1249 39.8452 74.1249 33.0107C74.1249 28.2162 72.3072 23.74 69.1602 19.9487C67.4067 17.8361 72.5357 2.07322 67.9786 4.19616C63.4215 6.31909 56.7397 11.0181 53.2371 9.98103C49.4873 8.87073 45.4011 8.26072 41.1249 8.26072C37.4107 8.26072 33.8399 8.72091 30.5084 9.5694C25.6656 10.8027 21.0343 6.19822 16.3749 4.19616C11.7154 2.19409 14.2579 18.4975 12.874 20.2121C9.85983 23.9464 8.12488 28.3266 8.12488 33.0107C8.12488 39.8452 11.8185 46.7628 17.7904 51.2418C21.7685 54.2252 26.7575 56.1266 32.3388 57.0638" stroke="#3D1A06" stroke-width="7.42686" stroke-linecap="round"/>
<path d="M32.3391 57.0636C29.9497 59.6937 28.7549 62.191 28.7549 64.5558V82.533" stroke="#3D1A06" stroke-width="7.42686" stroke-linecap="round"/>
<path d="M52.1476 56.6814C54.4118 59.653 55.5439 62.3213 55.5439 64.686V82.533" stroke="#3D1A06" stroke-width="7.42686" stroke-linecap="round"/>
<path d="M4 58.2054C5.85392 58.4321 7.22893 59.2845 8.125 60.7627C9.46911 62.9797 14.4655 71.2043 20.1393 71.2043H28.7549" stroke="#3D1A06" stroke-width="7.42686" stroke-linecap="round"/>
</svg>
